<svg width="668" height="567" viewBox="0 0 668 567" fill="none" xmlns="http://www.w3.org/2000/svg">
<circle cx="283.5" cy="283.5" r="283" stroke="white" stroke-opacity="0.5"/>
<g filter="url(#filter0_b_250_16)">
<rect x="467.25" y="335.5" width="200" height="105" rx="10" fill="black" fill-opacity="0.09"/>
</g>
<path d="M483.75 367.325C482.6 367.325 481.55 367.029 480.6 366.437C479.658 365.846 478.904 365.054 478.338 364.062C477.779 363.062 477.5 361.958 477.5 360.75C477.5 359.833 477.663 358.979 477.988 358.187C478.313 357.387 478.758 356.687 479.325 356.087C479.9 355.479 480.567 355.004 481.325 354.662C482.083 354.321 482.892 354.15 483.75 354.15C484.708 354.15 485.588 354.35 486.388 354.75C487.188 355.142 487.871 355.687 488.438 356.387C489.004 357.079 489.421 357.879 489.688 358.787C489.954 359.687 490.033 360.646 489.925 361.662H480.288C480.396 362.237 480.604 362.758 480.913 363.225C481.229 363.683 481.629 364.046 482.113 364.312C482.604 364.579 483.15 364.717 483.75 364.725C484.383 364.725 484.958 364.567 485.475 364.25C486 363.933 486.429 363.496 486.763 362.937L489.4 363.55C488.9 364.658 488.146 365.567 487.138 366.275C486.129 366.975 485 367.325 483.75 367.325ZM480.2 359.675H487.3C487.217 359.075 487.004 358.533 486.663 358.05C486.329 357.558 485.908 357.171 485.4 356.887C484.9 356.596 484.35 356.45 483.75 356.45C483.158 356.45 482.608 356.592 482.1 356.875C481.6 357.158 481.183 357.546 480.85 358.037C480.525 358.521 480.308 359.067 480.2 359.675ZM498.452 367.325C497.494 367.325 496.573 367.175 495.69 366.875C494.807 366.575 494.036 366.146 493.377 365.587C492.719 365.021 492.248 364.35 491.965 363.575L494.402 362.662C494.544 363.062 494.815 363.421 495.215 363.737C495.623 364.046 496.107 364.287 496.665 364.462C497.232 364.637 497.827 364.725 498.452 364.725C499.119 364.725 499.744 364.617 500.327 364.4C500.919 364.183 501.394 363.883 501.752 363.5C502.119 363.117 502.302 362.667 502.302 362.15C502.302 361.617 502.111 361.179 501.727 360.837C501.352 360.496 500.869 360.225 500.277 360.025C499.694 359.825 499.086 359.675 498.452 359.575C497.227 359.375 496.127 359.083 495.152 358.7C494.186 358.317 493.419 357.779 492.852 357.087C492.294 356.396 492.015 355.496 492.015 354.387C492.015 353.346 492.311 352.437 492.902 351.662C493.502 350.887 494.29 350.287 495.265 349.862C496.248 349.429 497.311 349.212 498.452 349.212C499.394 349.212 500.302 349.362 501.177 349.662C502.061 349.954 502.836 350.383 503.502 350.95C504.177 351.508 504.661 352.187 504.952 352.987L502.49 353.875C502.348 353.467 502.077 353.112 501.677 352.812C501.277 352.504 500.794 352.262 500.227 352.087C499.669 351.912 499.077 351.825 498.452 351.825C497.786 351.817 497.161 351.925 496.577 352.15C496.002 352.367 495.532 352.667 495.165 353.05C494.798 353.433 494.615 353.879 494.615 354.387C494.615 355.012 494.786 355.487 495.127 355.812C495.469 356.137 495.927 356.379 496.502 356.537C497.086 356.687 497.736 356.825 498.452 356.95C499.602 357.133 500.665 357.437 501.64 357.862C502.623 358.287 503.411 358.854 504.002 359.562C504.602 360.262 504.902 361.125 504.902 362.15C504.902 363.183 504.602 364.092 504.002 364.875C503.411 365.65 502.623 366.254 501.64 366.687C500.665 367.113 499.602 367.325 498.452 367.325ZM507.474 354.5H510.074V367H507.474V354.5ZM508.799 352.687C508.399 352.687 508.065 352.558 507.799 352.3C507.532 352.042 507.399 351.717 507.399 351.325C507.399 350.942 507.532 350.621 507.799 350.362C508.065 350.096 508.394 349.962 508.786 349.962C509.169 349.962 509.494 350.096 509.761 350.362C510.028 350.621 510.161 350.942 510.161 351.325C510.161 351.717 510.028 352.042 509.761 352.3C509.503 352.558 509.182 352.687 508.799 352.687ZM512.967 367V354.5H515.567V355.825C516 355.308 516.529 354.9 517.154 354.6C517.788 354.3 518.471 354.15 519.204 354.15C520.096 354.15 520.917 354.367 521.667 354.8C522.417 355.225 523.013 355.792 523.454 356.5C523.896 355.792 524.483 355.225 525.217 354.8C525.958 354.367 526.775 354.15 527.667 354.15C528.592 354.15 529.433 354.375 530.192 354.825C530.95 355.275 531.554 355.879 532.004 356.637C532.454 357.396 532.679 358.237 532.679 359.162V367H530.079V359.825C530.079 359.275 529.946 358.771 529.679 358.312C529.413 357.854 529.054 357.483 528.604 357.2C528.154 356.917 527.654 356.775 527.104 356.775C526.554 356.775 526.054 356.908 525.604 357.175C525.154 357.442 524.796 357.804 524.529 358.262C524.263 358.721 524.129 359.242 524.129 359.825V367H521.529V359.825C521.529 359.242 521.396 358.721 521.129 358.262C520.863 357.804 520.5 357.442 520.042 357.175C519.592 356.908 519.092 356.775 518.542 356.775C518 356.775 517.5 356.917 517.042 357.2C516.592 357.483 516.233 357.854 515.967 358.312C515.7 358.771 515.567 359.275 515.567 359.825V367H512.967ZM541.189 367V349.5H547.214C548.156 349.5 549.006 349.733 549.764 350.2C550.531 350.667 551.139 351.296 551.589 352.087C552.048 352.879 552.277 353.754 552.277 354.712C552.277 355.687 552.044 356.571 551.577 357.362C551.119 358.146 550.506 358.771 549.739 359.237C548.973 359.704 548.131 359.938 547.214 359.938H543.789V367H541.189ZM543.789 357.337H546.952C547.452 357.337 547.906 357.212 548.314 356.962C548.731 356.712 549.06 356.379 549.302 355.962C549.552 355.546 549.677 355.075 549.677 354.55C549.677 354.025 549.552 353.554 549.302 353.137C549.06 352.712 548.731 352.379 548.314 352.137C547.906 351.887 547.452 351.762 546.952 351.762H543.789V357.337ZM554.666 367V348.25H557.266V367H554.666ZM569.811 354.5H572.411V367H569.798L569.698 365.187C569.332 365.829 568.836 366.346 568.211 366.737C567.586 367.129 566.848 367.325 565.998 367.325C565.082 367.325 564.219 367.154 563.411 366.812C562.603 366.462 561.89 365.979 561.273 365.362C560.665 364.746 560.19 364.037 559.848 363.237C559.507 362.429 559.336 361.562 559.336 360.637C559.336 359.746 559.503 358.908 559.836 358.125C560.169 357.333 560.632 356.642 561.223 356.05C561.815 355.458 562.498 354.996 563.273 354.662C564.057 354.321 564.894 354.15 565.786 354.15C566.694 354.15 567.494 354.358 568.186 354.775C568.886 355.183 569.465 355.708 569.923 356.35L569.811 354.5ZM565.936 364.812C566.669 364.812 567.311 364.633 567.861 364.275C568.411 363.908 568.836 363.417 569.136 362.8C569.444 362.183 569.598 361.5 569.598 360.75C569.598 359.992 569.444 359.304 569.136 358.687C568.828 358.071 568.398 357.583 567.848 357.225C567.307 356.858 566.669 356.675 565.936 356.675C565.211 356.675 564.548 356.858 563.948 357.225C563.348 357.592 562.873 358.083 562.523 358.7C562.173 359.317 561.998 360 561.998 360.75C561.998 361.508 562.178 362.196 562.536 362.812C562.903 363.421 563.382 363.908 563.973 364.275C564.573 364.633 565.228 364.812 565.936 364.812ZM586.155 359.162V367H583.555V359.8C583.555 359.242 583.418 358.733 583.143 358.275C582.876 357.817 582.514 357.454 582.055 357.187C581.605 356.912 581.097 356.775 580.53 356.775C579.98 356.775 579.476 356.912 579.018 357.187C578.559 357.454 578.193 357.817 577.918 358.275C577.643 358.733 577.505 359.242 577.505 359.8V367H574.905V354.5H577.505V355.825C577.939 355.308 578.472 354.9 579.105 354.6C579.739 354.3 580.422 354.15 581.155 354.15C582.08 354.15 582.922 354.375 583.68 354.825C584.439 355.275 585.039 355.879 585.48 356.637C585.93 357.396 586.155 358.237 586.155 359.162ZM592.4 367.238C591.742 367.196 591.1 367.063 590.475 366.837C589.85 366.612 589.3 366.308 588.825 365.925C588.359 365.533 588.009 365.075 587.775 364.55L589.988 363.6C590.096 363.825 590.284 364.046 590.55 364.262C590.825 364.479 591.146 364.658 591.513 364.8C591.88 364.933 592.263 365 592.663 365C593.055 365 593.417 364.946 593.75 364.837C594.092 364.721 594.371 364.546 594.588 364.312C594.805 364.079 594.913 363.8 594.913 363.475C594.913 363.108 594.788 362.825 594.538 362.625C594.296 362.417 593.992 362.258 593.625 362.15C593.259 362.042 592.892 361.937 592.525 361.837C591.709 361.654 590.959 361.404 590.275 361.087C589.6 360.762 589.063 360.35 588.663 359.85C588.263 359.342 588.063 358.721 588.063 357.987C588.063 357.187 588.28 356.496 588.713 355.912C589.146 355.321 589.713 354.867 590.413 354.55C591.121 354.233 591.875 354.075 592.675 354.075C593.675 354.075 594.592 354.287 595.425 354.712C596.259 355.137 596.896 355.721 597.338 356.462L595.275 357.687C595.15 357.437 594.963 357.212 594.713 357.012C594.463 356.812 594.18 356.654 593.863 356.537C593.546 356.412 593.217 356.342 592.875 356.325C592.45 356.308 592.055 356.358 591.688 356.475C591.33 356.583 591.042 356.758 590.825 357C590.609 357.242 590.5 357.55 590.5 357.925C590.5 358.292 590.63 358.567 590.888 358.75C591.146 358.925 591.471 359.067 591.863 359.175C592.263 359.283 592.671 359.404 593.088 359.537C593.83 359.771 594.525 360.058 595.175 360.4C595.825 360.733 596.35 361.146 596.75 361.637C597.15 362.129 597.342 362.729 597.325 363.437C597.325 364.221 597.088 364.908 596.613 365.5C596.146 366.092 595.538 366.542 594.788 366.85C594.038 367.158 593.242 367.288 592.4 367.238ZM608.684 351.662V354.5H612.209V357.1H608.684V367H606.084V357.1H604.597V354.5H606.084V351.662C606.084 350.979 606.251 350.358 606.584 349.8C606.918 349.233 607.363 348.783 607.922 348.45C608.488 348.117 609.118 347.95 609.809 347.95C610.309 347.95 610.797 348.05 611.272 348.25C611.747 348.45 612.172 348.758 612.547 349.175L610.684 351.012C610.593 350.862 610.463 350.75 610.297 350.675C610.138 350.592 609.976 350.55 609.809 350.55C609.501 350.55 609.234 350.658 609.009 350.875C608.793 351.092 608.684 351.354 608.684 351.662ZM619.468 367.325C618.318 367.325 617.268 367.029 616.318 366.437C615.376 365.846 614.622 365.054 614.055 364.062C613.497 363.062 613.218 361.958 613.218 360.75C613.218 359.833 613.38 358.979 613.705 358.187C614.03 357.387 614.476 356.687 615.043 356.087C615.618 355.479 616.284 355.004 617.043 354.662C617.801 354.321 618.609 354.15 619.468 354.15C620.618 354.15 621.664 354.446 622.605 355.037C623.555 355.629 624.309 356.425 624.868 357.425C625.434 358.425 625.718 359.533 625.718 360.75C625.718 361.658 625.555 362.508 625.23 363.3C624.905 364.092 624.455 364.792 623.88 365.4C623.314 366 622.651 366.471 621.893 366.812C621.143 367.154 620.334 367.325 619.468 367.325ZM619.468 364.725C620.159 364.725 620.78 364.542 621.33 364.175C621.88 363.808 622.314 363.325 622.63 362.725C622.955 362.117 623.118 361.458 623.118 360.75C623.118 360.025 622.951 359.358 622.618 358.75C622.293 358.142 621.855 357.658 621.305 357.3C620.755 356.933 620.143 356.75 619.468 356.75C618.784 356.75 618.164 356.933 617.605 357.3C617.055 357.667 616.618 358.154 616.293 358.762C615.976 359.371 615.818 360.033 615.818 360.75C615.818 361.492 615.984 362.162 616.318 362.762C616.651 363.362 617.093 363.842 617.643 364.2C618.201 364.55 618.809 364.725 619.468 364.725ZM627.737 367V354.5H630.337V355.825C630.771 355.308 631.304 354.9 631.937 354.6C632.571 354.3 633.254 354.15 633.987 354.15C634.454 354.15 634.916 354.212 635.375 354.337L634.337 356.962C634.012 356.837 633.687 356.775 633.362 356.775C632.812 356.775 632.308 356.912 631.85 357.187C631.391 357.454 631.025 357.817 630.75 358.275C630.475 358.733 630.337 359.242 630.337 359.8V367H627.737ZM478.25 395V377.5H489.113V380.1H480.85V384.325H487.5V386.925H480.85V392.4H489.113V395H478.25ZM498.608 395H495.271L490.708 382.475H493.483L496.933 392L500.396 382.475H503.158L498.608 395ZM510.093 395.325C508.943 395.325 507.893 395.029 506.943 394.437C506.001 393.846 505.247 393.054 504.68 392.062C504.122 391.062 503.843 389.958 503.843 388.75C503.843 387.833 504.005 386.979 504.33 386.187C504.655 385.387 505.101 384.687 505.668 384.087C506.243 383.479 506.909 383.004 507.668 382.662C508.426 382.321 509.234 382.15 510.093 382.15C511.051 382.15 511.93 382.35 512.73 382.75C513.53 383.142 514.214 383.687 514.78 384.387C515.347 385.079 515.764 385.879 516.03 386.787C516.297 387.687 516.376 388.646 516.268 389.662H506.63C506.739 390.237 506.947 390.758 507.255 391.225C507.572 391.683 507.972 392.046 508.455 392.312C508.947 392.579 509.493 392.717 510.093 392.725C510.726 392.725 511.301 392.567 511.818 392.25C512.343 391.933 512.772 391.496 513.105 390.937L515.743 391.55C515.243 392.658 514.489 393.567 513.48 394.275C512.472 394.975 511.343 395.325 510.093 395.325ZM506.543 387.675H513.643C513.559 387.075 513.347 386.533 513.005 386.05C512.672 385.558 512.251 385.171 511.743 384.887C511.243 384.596 510.693 384.45 510.093 384.45C509.501 384.45 508.951 384.592 508.443 384.875C507.943 385.158 507.526 385.546 507.193 386.037C506.868 386.521 506.651 387.067 506.543 387.675ZM518.338 395V382.5H520.938V383.825C521.371 383.308 521.905 382.9 522.538 382.6C523.171 382.3 523.855 382.15 524.588 382.15C525.055 382.15 525.517 382.212 525.975 382.337L524.938 384.962C524.613 384.837 524.288 384.775 523.963 384.775C523.413 384.775 522.909 384.912 522.45 385.187C521.992 385.454 521.625 385.817 521.35 386.275C521.075 386.733 520.938 387.242 520.938 387.8V395H518.338ZM535.982 382.5H538.757L531.907 401.25H529.145L531.407 395L526.92 382.5H529.757L532.707 391.437L535.982 382.5ZM478.25 423V405.5H484.038C485.246 405.5 486.379 405.729 487.438 406.187C488.496 406.637 489.425 407.267 490.225 408.075C491.025 408.875 491.65 409.804 492.1 410.862C492.558 411.912 492.788 413.042 492.788 414.25C492.788 415.458 492.558 416.592 492.1 417.65C491.65 418.7 491.025 419.629 490.225 420.437C489.425 421.237 488.496 421.867 487.438 422.325C486.379 422.775 485.246 423 484.038 423H478.25ZM480.85 420.4H484.038C484.888 420.4 485.679 420.242 486.413 419.925C487.154 419.608 487.808 419.167 488.375 418.6C488.95 418.033 489.396 417.379 489.713 416.637C490.029 415.896 490.188 415.1 490.188 414.25C490.188 413.4 490.029 412.604 489.713 411.862C489.396 411.121 488.95 410.467 488.375 409.9C487.808 409.333 487.154 408.892 486.413 408.575C485.679 408.258 484.888 408.1 484.038 408.1H480.85V420.4ZM500.229 423.325C499.079 423.325 498.029 423.029 497.079 422.437C496.138 421.846 495.384 421.054 494.817 420.062C494.259 419.062 493.979 417.958 493.979 416.75C493.979 415.833 494.142 414.979 494.467 414.187C494.792 413.387 495.238 412.687 495.804 412.087C496.379 411.479 497.046 411.004 497.804 410.662C498.563 410.321 499.371 410.15 500.229 410.15C501.188 410.15 502.067 410.35 502.867 410.75C503.667 411.142 504.35 411.687 504.917 412.387C505.484 413.079 505.9 413.879 506.167 414.787C506.434 415.687 506.513 416.646 506.404 417.662H496.767C496.875 418.237 497.084 418.758 497.392 419.225C497.709 419.683 498.109 420.046 498.592 420.312C499.084 420.579 499.629 420.717 500.229 420.725C500.863 420.725 501.438 420.567 501.954 420.25C502.479 419.933 502.909 419.496 503.242 418.937L505.879 419.55C505.379 420.658 504.625 421.567 503.617 422.275C502.609 422.975 501.479 423.325 500.229 423.325ZM496.679 415.675H503.779C503.696 415.075 503.484 414.533 503.142 414.05C502.809 413.558 502.388 413.171 501.879 412.887C501.379 412.596 500.829 412.45 500.229 412.45C499.638 412.45 499.088 412.592 498.579 412.875C498.079 413.158 497.663 413.546 497.329 414.037C497.004 414.521 496.788 415.067 496.679 415.675ZM512.273 423.238C511.615 423.196 510.973 423.063 510.348 422.837C509.723 422.612 509.173 422.308 508.698 421.925C508.232 421.533 507.882 421.075 507.648 420.55L509.861 419.6C509.969 419.825 510.157 420.046 510.423 420.262C510.698 420.479 511.019 420.658 511.386 420.8C511.753 420.933 512.136 421 512.536 421C512.928 421 513.29 420.946 513.623 420.837C513.965 420.721 514.244 420.546 514.461 420.312C514.678 420.079 514.786 419.8 514.786 419.475C514.786 419.108 514.661 418.825 514.411 418.625C514.169 418.417 513.865 418.258 513.498 418.15C513.132 418.042 512.765 417.937 512.398 417.837C511.582 417.654 510.832 417.404 510.148 417.087C509.473 416.762 508.936 416.35 508.536 415.85C508.136 415.342 507.936 414.721 507.936 413.987C507.936 413.187 508.153 412.496 508.586 411.912C509.019 411.321 509.586 410.867 510.286 410.55C510.994 410.233 511.748 410.075 512.548 410.075C513.548 410.075 514.465 410.287 515.298 410.712C516.132 411.137 516.769 411.721 517.211 412.462L515.148 413.687C515.023 413.437 514.836 413.212 514.586 413.012C514.336 412.812 514.053 412.654 513.736 412.537C513.419 412.412 513.09 412.342 512.748 412.325C512.323 412.308 511.928 412.358 511.561 412.475C511.203 412.583 510.915 412.758 510.698 413C510.482 413.242 510.373 413.55 510.373 413.925C510.373 414.292 510.503 414.567 510.761 414.75C511.019 414.925 511.344 415.067 511.736 415.175C512.136 415.283 512.544 415.404 512.961 415.537C513.703 415.771 514.398 416.058 515.048 416.4C515.698 416.733 516.223 417.146 516.623 417.637C517.023 418.129 517.215 418.729 517.198 419.437C517.198 420.221 516.961 420.908 516.486 421.5C516.019 422.092 515.411 422.542 514.661 422.85C513.911 423.158 513.115 423.288 512.273 423.238ZM525.939 413.1H523.314L523.301 423H520.701L520.714 413.1H518.726V410.5H520.714L520.701 406.575H523.301L523.314 410.5H525.939V413.1ZM528.006 410.5H530.606V423H528.006V410.5ZM529.331 408.687C528.931 408.687 528.598 408.558 528.331 408.3C528.064 408.042 527.931 407.717 527.931 407.325C527.931 406.942 528.064 406.621 528.331 406.362C528.598 406.096 528.927 405.962 529.318 405.962C529.702 405.962 530.027 406.096 530.293 406.362C530.56 406.621 530.693 406.942 530.693 407.325C530.693 407.717 530.56 408.042 530.293 408.3C530.035 408.558 529.714 408.687 529.331 408.687ZM544.749 415.162V423H542.149V415.8C542.149 415.242 542.012 414.733 541.737 414.275C541.47 413.817 541.107 413.454 540.649 413.187C540.199 412.912 539.691 412.775 539.124 412.775C538.574 412.775 538.07 412.912 537.612 413.187C537.153 413.454 536.787 413.817 536.512 414.275C536.237 414.733 536.099 415.242 536.099 415.8V423H533.499V410.5H536.099V411.825C536.532 411.308 537.066 410.9 537.699 410.6C538.332 410.3 539.016 410.15 539.749 410.15C540.674 410.15 541.516 410.375 542.274 410.825C543.032 411.275 543.632 411.879 544.074 412.637C544.524 413.396 544.749 414.237 544.749 415.162ZM556.725 410.5H559.325V423H556.713L556.613 421.187C556.246 421.829 555.75 422.346 555.125 422.737C554.5 423.129 553.763 423.325 552.913 423.325C551.996 423.325 551.133 423.154 550.325 422.812C549.517 422.462 548.804 421.979 548.188 421.362C547.579 420.746 547.104 420.037 546.763 419.237C546.421 418.429 546.25 417.562 546.25 416.637C546.25 415.746 546.417 414.908 546.75 414.125C547.083 413.333 547.546 412.642 548.138 412.05C548.729 411.458 549.413 410.996 550.188 410.662C550.971 410.321 551.808 410.15 552.7 410.15C553.608 410.15 554.408 410.358 555.1 410.775C555.8 411.183 556.379 411.708 556.838 412.35L556.725 410.5ZM552.85 420.812C553.583 420.812 554.225 420.633 554.775 420.275C555.325 419.908 555.75 419.417 556.05 418.8C556.358 418.183 556.513 417.5 556.513 416.75C556.513 415.992 556.358 415.304 556.05 414.687C555.742 414.071 555.313 413.583 554.763 413.225C554.221 412.858 553.583 412.675 552.85 412.675C552.125 412.675 551.463 412.858 550.863 413.225C550.263 413.592 549.788 414.083 549.438 414.7C549.088 415.317 548.913 416 548.913 416.75C548.913 417.508 549.092 418.196 549.45 418.812C549.817 419.421 550.296 419.908 550.888 420.275C551.488 420.633 552.142 420.812 552.85 420.812ZM568.419 413.1H565.794L565.782 423H563.182L563.194 413.1H561.207V410.5H563.194L563.182 406.575H565.782L565.794 410.5H568.419V413.1ZM570.486 410.5H573.086V423H570.486V410.5ZM571.811 408.687C571.411 408.687 571.078 408.558 570.811 408.3C570.545 408.042 570.411 407.717 570.411 407.325C570.411 406.942 570.545 406.621 570.811 406.362C571.078 406.096 571.407 405.962 571.799 405.962C572.182 405.962 572.507 406.096 572.774 406.362C573.04 406.621 573.174 406.942 573.174 407.325C573.174 407.717 573.04 408.042 572.774 408.3C572.515 408.558 572.195 408.687 571.811 408.687ZM581.357 423.325C580.207 423.325 579.157 423.029 578.207 422.437C577.266 421.846 576.512 421.054 575.945 420.062C575.387 419.062 575.107 417.958 575.107 416.75C575.107 415.833 575.27 414.979 575.595 414.187C575.92 413.387 576.366 412.687 576.932 412.087C577.507 411.479 578.174 411.004 578.932 410.662C579.691 410.321 580.499 410.15 581.357 410.15C582.507 410.15 583.553 410.446 584.495 411.037C585.445 411.629 586.199 412.425 586.757 413.425C587.324 414.425 587.607 415.533 587.607 416.75C587.607 417.658 587.445 418.508 587.12 419.3C586.795 420.092 586.345 420.792 585.77 421.4C585.203 422 584.541 422.471 583.782 422.812C583.032 423.154 582.224 423.325 581.357 423.325ZM581.357 420.725C582.049 420.725 582.67 420.542 583.22 420.175C583.77 419.808 584.203 419.325 584.52 418.725C584.845 418.117 585.007 417.458 585.007 416.75C585.007 416.025 584.841 415.358 584.507 414.75C584.182 414.142 583.745 413.658 583.195 413.3C582.645 412.933 582.032 412.75 581.357 412.75C580.674 412.75 580.053 412.933 579.495 413.3C578.945 413.667 578.507 414.154 578.182 414.762C577.866 415.371 577.707 416.033 577.707 416.75C577.707 417.492 577.874 418.162 578.207 418.762C578.541 419.362 578.982 419.842 579.532 420.2C580.091 420.55 580.699 420.725 581.357 420.725ZM600.877 415.162V423H598.277V415.8C598.277 415.242 598.139 414.733 597.864 414.275C597.598 413.817 597.235 413.454 596.777 413.187C596.327 412.912 595.819 412.775 595.252 412.775C594.702 412.775 594.198 412.912 593.739 413.187C593.281 413.454 592.914 413.817 592.639 414.275C592.364 414.733 592.227 415.242 592.227 415.8V423H589.627V410.5H592.227V411.825C592.66 411.308 593.194 410.9 593.827 410.6C594.46 410.3 595.144 410.15 595.877 410.15C596.802 410.15 597.644 410.375 598.402 410.825C599.16 411.275 599.76 411.879 600.202 412.637C600.652 413.396 600.877 414.237 600.877 415.162Z" fill="white"/>
<defs>
<filter id="filter0_b_250_16" x="457.25" y="325.5" width="220" height="125" filterUnits="userSpaceOnUse" color-interpolation-filters="sRGB">
<feFlood flood-opacity="0" result="BackgroundImageFix"/>
<feGaussianBlur in="BackgroundImageFix" stdDeviation="5"/>
<feComposite in2="SourceAlpha" operator="in" result="effect1_backgroundBlur_250_16"/>
<feBlend mode="normal" in="SourceGraphic" in2="effect1_backgroundBlur_250_16" result="shape"/>
</filter>
</defs>
</svg>
